# xmcd
#
# Track frame offsets: 
#        150
#        18387
#        34046
#        46360
#        55755
#        72111
#        83115
#        96655
#        110630
#        124147
#
# Disc length: 1850 seconds
#
# Revision: 0
# Processed by: cddbd v1.5.2PL0 Copyright (c) Steve Scherf et al.
# Submitted via: ExactAudioCopy v1.1
#
DISCID=8507380a
DTITLE=Don Gatlin Famil and Friends - Christmas AlbumnUnknown Title
DYEAR=1900
DGENRE=Country
TTITLE0=It Wasn't His Child
TTITLE1=Christmas is For Giving
TTITLE2=Thank God for Kids
TTITLE3=Winter Wonderland
TTITLE4=Christmas Time is Here Again
TTITLE5=Santa Claus is Coing to Town
TTITLE6=Why Can't Everyday Be Like Christmas
TTITLE7=The Christmas Song
TTITLE8=Let's Take it Outside
TTITLE9=Christmas in Dixie
EXTD=
EXTT0=
EXTT1=
EXTT2=
EXTT3=
EXTT4=
EXTT5=
EXTT6=
EXTT7=
EXTT8=
EXTT9=
PLAYORDER=
